# xmcd CD database file
#
# Track frame offsets:
#	150
#	21320
#	43140
#	67665
#	88225
#	114967
#	136847
#	155307
#	181110
#
# Disc length: 2691 seconds
#
# Revision: 0
# Processed by: cddbd v1.5.1PL0 Copyright (c) Steve Scherf et al.
# Submitted via: CDex 1.51
#
DISCID=690a8109
DTITLE=Various Artist - NRG makeovers
DYEAR=1900
DGENRE=Rock
TTITLE0=LOVE DON'T COST A THING
TTITLE1=DANCING IN THE MOONLIGHT
TTITLE2=CAN'T FIGHT THE MOONLIGHT (Powerful Mix)
TTITLE3=SHE BANGS
TTITLE4=SKY
TTITLE5=THIS I PROMISE YOU
TTITLE6=CELEBRATE OUR LOVE
TTITLE7=SUCH A SHAME (Factory Team Mix)
TTITLE8=FLY HIGH
EXTD=
EXTT0=
EXTT1=
EXTT2=
EXTT3=
EXTT4=
EXTT5=
EXTT6=
EXTT7=
EXTT8=
PLAYORDER=
